<svg width="184" height="184" viewBox="0 0 184 184" fill="none" xmlns="http://www.w3.org/2000/svg">
<circle cx="92" cy="92" r="92" fill="#D5F653"/>
<path d="M65.3328 157.407L64.7862 157.225L65.584 154.826L66.2217 155.039C70.6652 156.685 72.7275 153.729 74.1515 149.447L76.0097 143.86L78.4388 144.668L73.3894 159.85L70.9602 159.043L72.3236 154.943C70.5239 157.312 68.2174 158.366 65.3328 157.407Z" fill="black"/>
<path d="M59.3342 134.674C63.6667 137.91 63.5731 142.474 60.6812 146.345C57.8277 150.165 53.4784 151.549 49.1458 148.313C44.8388 145.095 44.9517 140.506 47.786 136.712C50.6587 132.866 55.0272 131.457 59.3342 134.674ZM58.6238 144.768C61.305 141.179 60.9863 138.504 58.0893 136.34C55.1924 134.176 52.5629 134.648 49.8817 138.238C47.1814 141.852 47.4937 144.482 50.3906 146.646C53.2875 148.81 55.9235 148.383 58.6238 144.768Z" fill="black"/>
<path d="M30.7981 127.641C28.1678 123.361 30.0152 119.521 34.2139 116.941C38.3853 114.378 42.6723 114.448 45.3026 118.729C46.8439 121.237 46.7815 123.641 45.4154 125.758L48.0327 124.15L49.373 126.331L30.2881 138.058L28.9479 135.877L36.9908 130.935C34.4854 131.197 32.3394 130.15 30.7981 127.641ZM43.7985 120.254C41.8886 117.146 39.2243 116.905 35.5709 119.15C31.8902 121.412 30.9284 123.88 32.8383 126.989C34.6142 129.879 37.3725 130.7 41.2167 128.338C45.0609 125.976 45.5743 123.144 43.7985 120.254Z" fill="black"/>
<path d="M39.3195 105.519L40.2653 108.71L37.5654 109.51L36.6196 106.319L39.3195 105.519Z" fill="black"/>
<path d="M29.7205 89.729L30.1512 87.173C33.412 87.6576 36.0605 86.3841 36.8794 81.5246C37.6079 77.2015 36.3481 75.6263 33.9184 75.2168C31.7095 74.8446 30.4084 75.826 29.5199 78.4022L27.9277 83.2287C26.7744 86.7987 24.694 88.168 21.5385 87.6363C18.1621 87.0673 15.9106 84.0593 16.8252 78.6318C17.7505 73.1413 20.9847 70.8955 25.0716 71.2921L24.6462 73.8165C21.7584 73.6219 19.5357 75.0647 18.871 79.009C18.2435 82.7325 19.587 84.5815 21.922 84.975C23.5629 85.2515 24.9896 84.6807 25.7671 82.3778L27.4387 77.2726C28.6657 73.6502 30.6416 71.9387 34.018 72.5077C38.0255 73.183 39.9142 76.0325 38.9305 81.8702C37.7818 88.6861 33.8542 90.4256 29.7205 89.729Z" fill="black"/>
<path d="M44.9239 61.5027C46.5843 58.8423 46.098 56.8414 44.6419 55.3668L45.8787 53.3851C47.7724 54.9442 49.3415 58.1113 46.529 62.6177C43.6148 67.2869 39.1781 67.3846 35.079 64.8262C31.0342 62.3017 29.2745 58.1103 32.087 53.604C34.6285 49.532 38.8647 48.9697 42.8281 51.4434C43.181 51.6636 43.4525 51.833 43.7444 52.0907L36.9333 63.0036C40.754 65.1619 43.2296 64.2174 44.9239 61.5027ZM33.7599 54.6103C32.1503 57.1893 32.3214 59.6348 35.3384 61.9327L40.8279 53.1372C37.6383 51.2973 35.3356 52.0857 33.7599 54.6103Z" fill="black"/>
<path d="M59.1121 46.3891C61.6256 44.5137 61.8994 42.4728 61.0785 40.5699L62.9508 39.173C64.1487 41.3135 64.46 44.8343 60.2025 48.011C55.7912 51.3025 51.6221 49.7818 48.7325 45.909C45.8811 42.0875 45.7644 37.5432 50.0219 34.3666C53.869 31.4961 58.0201 32.5112 60.814 36.2557C61.0628 36.5891 61.2542 36.8456 61.4325 37.1916L51.1222 44.8845C53.8978 48.2834 56.5474 48.3028 59.1121 46.3891ZM51.2148 35.9119C48.7783 37.7299 48.0493 40.0705 50.0253 43.3074L58.3351 37.1071C56.0318 34.2342 53.6001 34.1322 51.2148 35.9119Z" fill="black"/>
<path d="M85.833 36.6883L82.723 37.568L74.8044 31.7931L72.4864 35.7078L73.7318 40.1111L71.2684 40.8078L65.1719 19.2534L67.6353 18.5566L71.7112 32.9673C72.0076 32.2516 72.3743 31.5493 72.7364 30.9481L77.7834 22.3374L80.8318 21.4752L80.8492 21.5368L75.926 29.8796L85.833 36.6883Z" fill="black"/>
<path d="M92.5448 37.0044L89.2179 37.0897L89.1457 34.2746L92.4726 34.1893L92.5448 37.0044Z" fill="black"/>
<path d="M124.802 23.1088C131.107 26.0947 131.713 31.6929 129.234 36.9276C126.727 42.22 121.998 45.3269 115.694 42.341L107.712 38.5607L116.82 19.3285L124.802 23.1088ZM111.03 37.7598L116.178 40.1979C121.297 42.6222 124.403 40.6235 126.718 35.7359C129.033 30.8484 128.599 27.2791 123.451 24.8411L118.303 22.403L111.03 37.7598Z" fill="black"/>
<path d="M133.114 56.232C129.529 52.1829 130.548 47.7337 134.166 44.5307C137.736 41.3701 142.276 40.8982 145.861 44.9474C149.424 48.9726 148.381 53.443 144.835 56.5823C141.242 59.7641 136.678 60.2572 133.114 56.232ZM135.86 46.4926C132.506 49.4623 132.275 52.1458 134.671 54.8533C137.068 57.5607 139.739 57.6325 143.093 54.6628C146.472 51.672 146.7 49.0336 144.303 46.3261C141.906 43.6187 139.238 43.5018 135.86 46.4926Z" fill="black"/>
<path d="M141.742 68.5687L140.24 65.5989L142.753 64.328L144.255 67.2978L141.742 68.5687Z" fill="black"/>
<path d="M157.927 95.3764C157.685 97.7176 156.092 99.7651 152.733 99.8306C149.245 99.8987 146.965 97.8308 146.879 93.4157L146.676 83.0176L167.952 82.6024L168.156 93.0644C168.244 97.6075 165.939 99.2208 162.996 99.2783C159.925 99.3382 158.353 97.5125 157.927 95.3764ZM166.002 92.5624L165.86 85.2997L158.757 85.4384L158.892 92.349C158.951 95.3565 160.222 96.5479 162.558 96.5023C164.957 96.4555 166.06 95.5378 166.002 92.5624ZM148.871 85.6313L149.017 93.1179C149.075 96.0933 150.695 97.0859 152.966 97.0416C155.494 96.9922 156.94 95.6518 156.878 92.4524L156.742 85.4777L148.871 85.6313Z" fill="black"/>
<path d="M151.14 106.709L160.675 110.354L159.761 112.745L150.495 109.203C147.177 107.935 145.75 109.068 144.871 111.37C143.682 114.479 145.788 117.305 150.75 119.201L156.459 121.384L155.545 123.775L140.6 118.062L141.514 115.671L145.37 117.145C142.903 115.174 142.075 112.768 143.161 109.928C144.6 106.162 147.224 105.213 151.14 106.709Z" fill="black"/>
<path d="M149.051 137.965L151.235 135.496L153.224 137.256L151.041 139.725L149.051 137.965ZM135.354 125.34L137.05 123.423L149.036 134.022L147.34 135.939L135.354 125.34Z" fill="black"/>
<path d="M121.465 137.988L123.726 136.789L134.224 156.577L131.962 157.776L121.465 137.988Z" fill="black"/>
<path d="M94.1242 159.495L95.2163 168.871L92.6735 169.168L90.082 146.918L92.6248 146.622L92.9802 149.673C93.798 147.291 95.6487 145.754 98.5729 145.413C103.563 144.832 106.27 148.157 106.837 153.021C107.407 157.915 105.533 161.742 100.542 162.323C97.6183 162.664 95.4677 161.626 94.1242 159.495ZM98.305 147.539C94.9358 147.931 93.0283 150.086 93.5503 154.568C94.0723 159.05 96.4241 160.709 99.7933 160.316C103.417 159.894 104.762 157.611 104.262 153.32C103.766 149.061 101.929 147.117 98.305 147.539Z" fill="black"/>
<path d="M82.8193 145.519L86.1146 145.985L85.7203 148.773L82.4251 148.308L82.8193 145.519Z" fill="black"/>
<path d="M95 77L99.3215 88.6785L111 93L99.3215 97.3215L95 109L90.6785 97.3215L79 93L90.6785 88.6785L95 77Z" fill="black"/>
</svg>
