<svg width="1217" height="984" viewBox="0 0 1217 984" fill="none" xmlns="http://www.w3.org/2000/svg">
<rect x="0.5" y="0.5" width="1216" height="983" rx="4.5" stroke="#EFEFEF"/>
<path d="M82 0.931763L82 984" stroke="#EFEFEF"/>
<path d="M1217 98.7727L5.38826e-05 98.7727" stroke="#EFEFEF"/>
<path d="M502 0.931763L502 984" stroke="#EFEFEF"/>
<path d="M1217 490.136L5.38826e-05 490.136" stroke="#EFEFEF"/>
<path d="M922 0.931763L922 984" stroke="#EFEFEF"/>
<path d="M1217 881.5L5.38826e-05 881.5" stroke="#EFEFEF"/>
<path d="M292 0.931763L292 984" stroke="#EFEFEF"/>
<path d="M1217 294.455L5.38826e-05 294.455" stroke="#EFEFEF"/>
<path d="M712 0.931763L712 984" stroke="#EFEFEF"/>
<path d="M1217 685.818L5.38826e-05 685.818" stroke="#EFEFEF"/>
<path d="M1132 0.931763L1132 984" stroke="#EFEFEF"/>
<path d="M187 0.931763L187 984" stroke="#EFEFEF"/>
<path d="M1217 196.614L5.38826e-05 196.614" stroke="#EFEFEF"/>
<path d="M607 0.931763L607 984" stroke="#EFEFEF"/>
<path d="M1217 587.977L5.38826e-05 587.977" stroke="#EFEFEF"/>
<path d="M1027 0.931763L1027 984" stroke="#EFEFEF"/>
<path d="M397 0.931763L397 984" stroke="#EFEFEF"/>
<path d="M1217 392.295L5.38826e-05 392.295" stroke="#EFEFEF"/>
<path d="M817 0.931763L817 984" stroke="#EFEFEF"/>
<path d="M1217 783.659L5.38826e-05 783.659" stroke="#EFEFEF"/>
</svg>
