<svg width="44" height="44" viewBox="0 0 44 44" fill="none" xmlns="http://www.w3.org/2000/svg">
<path d="M35.75 19.0137V35.75C35.75 36.844 35.3154 37.8932 34.5418 38.6668C33.7682 39.4404 32.719 39.875 31.625 39.875H12.375C11.281 39.875 10.2318 39.4404 9.45818 38.6668C8.6846 37.8932 8.25 36.844 8.25 35.75V8.25C8.25 7.15598 8.6846 6.10677 9.45818 5.33318C10.2318 4.5596 11.281 4.125 12.375 4.125H20.8613C21.5904 4.12511 22.2896 4.41475 22.8052 4.93023L34.9448 17.0698C35.4603 17.5854 35.7499 18.2846 35.75 19.0137Z" stroke="white" stroke-width="2" stroke-linejoin="round"/>
<path d="M22 4.8125V15.125C22 15.8543 22.2897 16.5538 22.8055 17.0695C23.3212 17.5853 24.0207 17.875 24.75 17.875H35.0625" stroke="white" stroke-width="2" stroke-linecap="round" stroke-linejoin="round"/>
</svg>
