<svg width="38" height="39" viewBox="0 0 38 39" fill="none" xmlns="http://www.w3.org/2000/svg">
<path d="M27.7083 23.4583V21.875H31.6666C31.8915 21.875 32.0793 21.951 32.2303 22.103C32.3823 22.255 32.4583 22.4434 32.4583 22.6683C32.4583 22.8931 32.3823 23.081 32.2303 23.2319C32.0793 23.3829 31.8915 23.4583 31.6666 23.4583H27.7083ZM27.7083 29.7917V28.2083H31.6666C31.8915 28.2083 32.0793 28.2843 32.2303 28.4363C32.3823 28.5883 32.4583 28.7768 32.4583 29.0016C32.4583 29.2264 32.3823 29.4143 32.2303 29.5653C32.0793 29.7162 31.8915 29.7917 31.6666 29.7917H27.7083ZM22.9583 31.375C22.0875 31.375 21.3422 31.0652 20.7226 30.4456C20.103 29.826 19.7927 29.0802 19.7916 28.2083H16.625V23.4583H19.7916C19.7916 22.5875 20.102 21.8423 20.7226 21.2227C21.3433 20.6031 22.0885 20.2927 22.9583 20.2917H26.125V31.375H22.9583ZM11.0833 26.625C9.54429 26.625 8.23593 26.0861 7.15821 25.0084C6.08049 23.9307 5.54163 22.6223 5.54163 21.0833C5.54163 19.5443 6.08049 18.236 7.15821 17.1582C8.23593 16.0805 9.54429 15.5417 11.0833 15.5417H13.4583C14.3207 15.5417 15.0643 15.2298 15.6892 14.6059C16.313 13.981 16.625 13.2374 16.625 12.375C16.625 11.5126 16.313 10.769 15.6892 10.1441C15.0643 9.52025 14.3207 9.20833 13.4583 9.20833H7.91663C7.69179 9.20833 7.5039 9.13233 7.35296 8.98033C7.20096 8.82833 7.12496 8.63992 7.12496 8.41508C7.12496 8.19025 7.20096 8.00236 7.35296 7.85142C7.50496 7.70047 7.69285 7.625 7.91663 7.625H13.4583C14.7862 7.625 15.9098 8.08469 16.8292 9.00408C17.7486 9.92347 18.2083 11.0471 18.2083 12.375C18.2083 13.7029 17.7486 14.8265 16.8292 15.7459C15.9098 16.6653 14.7862 17.125 13.4583 17.125H11.0833C9.99501 17.125 9.06296 17.5129 8.28713 18.2887C7.51129 19.0646 7.1239 19.9982 7.12496 21.0897C7.12496 22.1801 7.51235 23.1111 8.28713 23.8827C9.06401 24.6553 9.99607 25.0417 11.0833 25.0417H15.0416V26.625H11.0833Z" fill="white"/>
</svg>
