<svg width="127" height="110" viewBox="0 0 127 110" fill="none" xmlns="http://www.w3.org/2000/svg">
<g clip-path="url(#clip0_31_674)">
<path d="M12 114.946V102.807C12 99.6013 12.8555 96.7374 14.5665 94.2151C16.2824 91.688 18.699 89.6451 21.8161 88.0865C27.7997 85.0775 34.4421 82.656 41.7434 80.8221C49.0446 78.9882 56.3385 78.0713 63.625 78.0713C70.9164 78.0713 78.2128 78.9882 85.514 80.8221C92.8152 82.656 99.4577 85.0775 105.441 88.0865C108.558 89.6451 110.972 91.6855 112.683 94.2077C114.394 96.7349 115.25 99.6013 115.25 102.807V114.946H12ZM19.375 107.571H107.875V102.807C107.875 100.791 107.302 99.1367 106.157 97.8436C105.006 96.5505 103.595 95.4541 101.923 94.5544C97.3066 92.1501 91.5271 90.0311 84.5847 88.1971C77.6375 86.3632 70.6509 85.4463 63.625 85.4463C56.604 85.4463 49.6199 86.3632 42.6726 88.1971C35.7303 90.0311 29.9532 92.1501 25.3414 94.5544C23.6648 95.4541 22.2512 96.5505 21.1007 97.8436C19.9502 99.1416 19.375 100.796 19.375 102.807V107.571ZM63.625 61.625C57.312 61.625 52.0462 59.5158 47.8277 55.2973C43.6092 51.0788 41.5 45.5278 41.5 38.6445H39.9439C39.1228 38.6445 38.4443 38.3765 37.9084 37.8406C37.3725 37.3047 37.1045 36.6287 37.1045 35.8125C37.1045 34.9865 37.3725 34.308 37.9084 33.777C38.4443 33.246 39.1228 32.9756 39.9439 32.9658H41.5C41.6917 29.234 42.4784 25.8415 43.86 22.7883C45.2367 19.735 47.4762 16.8243 50.5786 14.0563V21.0625C50.5786 21.8836 50.8466 22.5596 51.3825 23.0906C51.9135 23.6315 52.592 23.9019 53.418 23.9019C54.2391 23.9019 54.9176 23.6315 55.4535 23.0906C55.9845 22.5596 56.25 21.8836 56.25 21.0625V11.3865C57.2628 11.0178 58.4084 10.6933 59.6867 10.413C60.9651 10.1377 62.2778 10 63.625 10C64.9722 10 66.2874 10.1377 67.5706 10.413C68.849 10.6933 69.9921 11.0178 71 11.3865V21.0625C71 21.8836 71.2704 22.5621 71.8112 23.098C72.3422 23.629 73.0183 23.8945 73.8394 23.8945C74.6605 23.8945 75.339 23.6265 75.8749 23.0906C76.4108 22.5596 76.6787 21.8836 76.6787 21.0625V14.0563C79.8746 16.8243 82.1362 19.735 83.4637 22.7883C84.8011 25.8415 85.5632 29.234 85.75 32.9658H87.3135C88.1346 32.9658 88.8131 33.2362 89.349 33.777C89.8849 34.3178 90.1529 34.9963 90.1529 35.8125C90.1529 36.6336 89.8825 37.3121 89.3416 37.848C88.8008 38.3839 88.1247 38.6494 87.3135 38.6445H85.75C85.75 45.5278 83.6432 51.0788 79.4296 55.2973C75.2111 59.5158 69.9429 61.625 63.625 61.625ZM63.625 54.25C67.873 54.25 71.3933 52.8512 74.186 50.0536C76.9787 47.261 78.375 43.7431 78.375 39.5H48.875C48.875 43.7431 50.2738 47.261 53.0714 50.0536C55.864 52.8512 59.3819 54.25 63.625 54.25Z" fill="#00A976"/>
</g>
<defs>
<clipPath id="clip0_31_674">
<rect width="127" height="110" fill="white"/>
</clipPath>
</defs>
</svg>
