<svg width="43" height="43" viewBox="0 0 43 43" fill="none" xmlns="http://www.w3.org/2000/svg">
<path d="M32.25 3.58325H10.75C9.7996 3.58325 8.88817 3.96078 8.21616 4.63279C7.54415 5.30479 7.16663 6.21623 7.16663 7.16659V35.8333C7.16663 36.7836 7.54415 37.695 8.21616 38.367C8.88817 39.0391 9.7996 39.4166 10.75 39.4166H32.25C33.2003 39.4166 34.1118 39.0391 34.7838 38.367C35.4558 37.695 35.8333 36.7836 35.8333 35.8333V7.16659C35.8333 6.21623 35.4558 5.30479 34.7838 4.63279C34.1118 3.96078 33.2003 3.58325 32.25 3.58325Z" stroke="white" stroke-width="2" stroke-linecap="round" stroke-linejoin="round"/>
<path d="M16.1249 28.6665L16.7484 28.2365C19.3732 26.4215 23.6284 26.4215 26.2514 28.2365L26.8749 28.6665M14.3333 12.5415H14.3512M28.6666 12.5415H28.6845M21.4999 12.5415H21.5178M21.4999 19.7082H21.5178M28.6666 19.7082H28.6845M14.3333 19.7082H14.3512M17.9166 39.4165V27.7707M25.0833 27.7707V39.4165" stroke="white" stroke-width="2" stroke-linecap="round" stroke-linejoin="round"/>
</svg>
