<svg width="124" height="102" viewBox="0 0 124 102" fill="none" xmlns="http://www.w3.org/2000/svg">
<g clip-path="url(#clip0_31_653)">
<path d="M62 35.9722C64.8535 35.9722 67.1667 33.6715 67.1667 30.8333C67.1667 27.9952 64.8535 25.6945 62 25.6945C59.1466 25.6945 56.8334 27.9952 56.8334 30.8333C56.8334 33.6715 59.1466 35.9722 62 35.9722Z" fill="#00A976"/>
<path d="M31 87.3611H93V97.6389H31V87.3611ZM51.6667 60.793L66.092 75.1511L86.4073 54.9296L93 61.6666V41.1111H72.3333L79.1017 47.6632L66.0868 60.608L51.6667 46.25L31 66.8055L38.3057 74.0719L51.6667 60.793Z" fill="#00A976"/>
<path d="M98.1667 15.4166H81.127C80.6197 14.6568 80.0677 13.9275 79.4737 13.2326L79.422 13.171C75.626 8.77335 70.2851 5.98311 64.4904 5.37012C62.8449 5.05851 61.1551 5.05851 59.5097 5.37012C53.715 5.98311 48.3741 8.77335 44.578 13.171L44.5264 13.2326C43.9326 13.9259 43.3805 14.6534 42.873 15.4115L25.8334 15.4166C21.7238 15.4207 17.7837 17.0463 14.8778 19.9366C11.9718 22.8269 10.3375 26.7458 10.3334 30.8333V102.778C10.3375 106.865 11.9718 110.784 14.8778 113.674C17.7837 116.565 21.7238 118.19 25.8334 118.194H98.1667C102.276 118.19 106.216 116.565 109.122 113.674C112.028 110.784 113.663 106.865 113.667 102.778V30.8333C113.663 26.7458 112.028 22.8269 109.122 19.9366C106.216 17.0463 102.276 15.4207 98.1667 15.4166ZM103.333 102.778C103.333 104.141 102.789 105.448 101.82 106.411C100.851 107.375 99.537 107.917 98.1667 107.917H25.8334C24.4635 107.915 23.1501 107.373 22.1815 106.41C21.2129 105.447 20.6681 104.14 20.6667 102.778V30.8333C20.6681 29.4708 21.2129 28.1645 22.1815 27.2011C23.1501 26.2376 24.4635 25.6958 25.8334 25.6944H49.3417C49.9346 22.7902 51.5188 20.1792 53.8257 18.3037C56.1327 16.4283 59.0205 15.4038 62 15.4038C64.9795 15.4038 67.8674 16.4283 70.1744 18.3037C72.4813 20.1792 74.0655 22.7902 74.6584 25.6944H98.1667C99.5366 25.6958 100.85 26.2376 101.819 27.2011C102.787 28.1645 103.332 29.4708 103.333 30.8333V102.778Z" fill="#00A976"/>
</g>
<defs>
<clipPath id="clip0_31_653">
<rect width="124" height="102" fill="white"/>
</clipPath>
</defs>
</svg>
