<svg width="50" height="55" viewBox="0 0 50 55" fill="none" xmlns="http://www.w3.org/2000/svg">
<g clip-path="url(#clip0_29_477)">
<path d="M31.3528 19.8237L39.1763 27.6472M16.8235 34.3531L24.647 42.1766M24.647 19.8237L16.8235 27.6472M39.1763 34.3531L31.3528 42.1766" stroke="white" stroke-width="2" stroke-linecap="round"/>
<path d="M27.9999 20.9414C30.4689 20.9414 32.4704 18.9398 32.4704 16.4708C32.4704 14.0018 30.4689 12.0002 27.9999 12.0002C25.5308 12.0002 23.5293 14.0018 23.5293 16.4708C23.5293 18.9398 25.5308 20.9414 27.9999 20.9414Z" stroke="white" stroke-width="2"/>
<path d="M27.9999 50C30.4689 50 32.4704 47.9984 32.4704 45.5294C32.4704 43.0604 30.4689 41.0588 27.9999 41.0588C25.5308 41.0588 23.5293 43.0604 23.5293 45.5294C23.5293 47.9984 25.5308 50 27.9999 50Z" stroke="white" stroke-width="2"/>
<path d="M13.4706 35.4707C15.9396 35.4707 17.9411 33.4691 17.9411 31.0001C17.9411 28.5311 15.9396 26.5295 13.4706 26.5295C11.0015 26.5295 9 28.5311 9 31.0001C9 33.4691 11.0015 35.4707 13.4706 35.4707Z" stroke="white" stroke-width="2"/>
<path d="M42.5294 35.4707C44.9984 35.4707 47 33.4691 47 31.0001C47 28.5311 44.9984 26.5295 42.5294 26.5295C40.0604 26.5295 38.0588 28.5311 38.0588 31.0001C38.0588 33.4691 40.0604 35.4707 42.5294 35.4707Z" stroke="white" stroke-width="2"/>
<path d="M13.4707 32.1179C14.0879 32.1179 14.5883 31.6175 14.5883 31.0002C14.5883 30.383 14.0879 29.8826 13.4707 29.8826C12.8534 29.8826 12.353 30.383 12.353 31.0002C12.353 31.6175 12.8534 32.1179 13.4707 32.1179Z" stroke="white" stroke-width="2"/>
</g>
<defs>
<clipPath id="clip0_29_477">
<rect width="50" height="55" fill="white"/>
</clipPath>
</defs>
</svg>
