<svg width="195" height="126" viewBox="0 0 195 126" fill="none" xmlns="http://www.w3.org/2000/svg">
<g clip-path="url(#clip0_31_659)">
<path fill-rule="evenodd" clip-rule="evenodd" d="M57.7159 69.3868C55.0469 71.7363 52.8125 75.1694 52.8125 79.7181C52.8125 86.4126 55.2987 90.8934 57.9475 93.6541C58.5041 94.2335 59.0647 94.7341 59.6172 95.1704V74.2038H67.7422V144.349C67.7475 144.95 68.021 145.524 68.5036 145.949C68.9863 146.374 69.6393 146.615 70.3219 146.62C71.0037 146.614 71.6557 146.373 72.1375 145.948C72.6193 145.523 72.8922 144.949 72.8975 144.349V111.549H94.3069V144.349C94.3122 144.949 94.5851 145.523 95.0669 145.948C95.5486 146.373 96.2007 146.614 96.8825 146.62C97.565 146.615 98.2181 146.374 98.7007 145.949C99.1834 145.524 99.4569 144.95 99.4622 144.349V70.6277H136.723C137.405 70.6231 138.058 70.3828 138.54 69.9587C139.023 69.5346 139.297 68.9607 139.303 68.3605C139.298 67.7597 139.024 67.1848 138.542 66.7599C138.059 66.3351 137.406 66.0943 136.723 66.0897H63.6797L63.6594 66.0968C63.5375 66.1183 62.8591 66.2363 61.6931 66.7727C60.4825 67.3342 59.0606 68.2031 57.7159 69.3868ZM59.6172 103.635C58.9772 103.39 58.3545 103.112 57.7525 102.802C55.4729 101.6 53.4402 100.068 51.74 98.2709C47.84 94.2049 44.6875 88.0898 44.6875 79.7181C44.6875 72.9128 48.0919 67.7418 51.9756 64.3267C53.726 62.7778 55.7292 61.4676 57.9191 60.4395C59.7228 59.6062 61.8028 58.9375 63.6797 58.9375H136.723C139.561 58.9422 142.281 59.9365 144.287 61.7027C146.293 63.4688 147.423 65.8628 147.428 68.3605C147.422 70.8575 146.292 73.2507 144.285 75.016C142.279 76.7814 139.56 77.7752 136.723 77.7799H107.587V144.349C107.582 146.846 106.452 149.24 104.446 151.007C102.44 152.773 99.7199 153.767 96.8825 153.772C94.0451 153.767 91.3254 152.773 89.3191 151.007C87.3127 149.24 86.1832 146.846 86.1778 144.349V118.701H81.0225V144.349C81.0171 146.846 79.8882 149.239 77.8827 151.005C75.8772 152.771 73.1586 153.766 70.3219 153.772C67.4845 153.767 64.7648 152.773 62.7584 151.007C60.7521 149.24 59.6226 146.846 59.6172 144.349V103.635Z" fill="#00A976"/>
<path d="M138.125 39.337V146.62H130V39.337H138.125Z" fill="#00A976"/>
<path d="M105.625 53.6413C105.625 47.7158 118.357 42.9131 134.062 42.9131C149.768 42.9131 162.5 47.7158 162.5 53.6413C142.188 48.2772 127.969 48.2772 105.625 53.6413Z" fill="#00A976"/>
<path fill-rule="evenodd" clip-rule="evenodd" d="M105.625 39.337H99.7141C100.528 41.132 100.946 43.0472 100.945 44.98C100.933 49.0264 99.1017 52.9039 95.8509 55.7647C92.6002 58.6256 88.1948 60.2369 83.5981 60.2464C79.0018 60.236 74.5973 58.6236 71.348 55.762C68.0986 52.9004 66.269 49.0224 66.2594 44.9765C66.2594 42.9882 66.6941 41.0857 67.4903 39.337H60.9375C60.9375 29.4634 70.9394 21.4565 83.2812 21.4565C95.6231 21.4565 105.625 29.4634 105.625 39.337ZM90.2038 39.337H77.0006C75.3838 40.8032 74.3844 42.7951 74.3844 44.98C74.3951 47.1292 75.3697 49.1875 77.096 50.7072C78.8224 52.2269 81.1608 53.0848 83.6022 53.0942C86.0443 53.0848 88.3833 52.2264 90.1098 50.7059C91.8363 49.1855 92.8104 47.1262 92.82 44.9765C92.8169 42.8682 91.8781 40.8445 90.2038 39.337ZM83.2812 35.7609C84.8974 35.7609 86.4474 35.1957 87.5902 34.1898C88.733 33.1838 89.375 31.8194 89.375 30.3968C89.375 28.9741 88.733 27.6097 87.5902 26.6037C86.4474 25.5978 84.8974 25.0326 83.2812 25.0326C81.6651 25.0326 80.1151 25.5978 78.9723 26.6037C77.8295 27.6097 77.1875 28.9741 77.1875 30.3968C77.1875 31.8194 77.8295 33.1838 78.9723 34.1898C80.1151 35.1957 81.6651 35.7609 83.2812 35.7609Z" fill="#00A976"/>
</g>
<defs>
<clipPath id="clip0_31_659">
<rect width="195" height="126" fill="white"/>
</clipPath>
</defs>
</svg>
