<svg width="44" height="44" viewBox="0 0 44 44" fill="none" xmlns="http://www.w3.org/2000/svg">
<g clip-path="url(#clip0_43_44)">
<path d="M9.625 12.6499H34.375M19.25 7.1499V9.8999M24.75 7.1499V9.8999M22 27.0874V36.0249M27.5 20.8999C30.7643 22.5265 33 25.9187 33 30.5249V36.0249H11V30.5249C11 25.9132 13.2426 22.5155 16.5 20.8999C16.5 22.3586 17.0795 23.7575 18.1109 24.789C19.1424 25.8204 20.5413 26.3999 22 26.3999C23.4587 26.3999 24.8576 25.8204 25.8891 24.789C26.9205 23.7575 27.5 22.3586 27.5 20.8999ZM22 22.2749C23.0834 22.2749 24.1562 22.0615 25.1571 21.6469C26.1581 21.2323 27.0675 20.6246 27.8336 19.8585C28.5997 19.0924 29.2074 18.183 29.622 17.182C30.0366 16.1811 30.25 15.1083 30.25 14.0249C30.25 12.9415 30.0366 11.8687 29.622 10.8678C29.2074 9.86683 28.5997 8.95735 27.8336 8.19127C27.0675 7.42519 26.1581 6.8175 25.1571 6.4029C24.1562 5.98829 23.0834 5.7749 22 5.7749C19.812 5.7749 17.7135 6.6441 16.1664 8.19127C14.6192 9.73845 13.75 11.8369 13.75 14.0249C13.75 16.2129 14.6192 18.3114 16.1664 19.8585C17.7135 21.4057 19.812 22.2749 22 22.2749Z" stroke="white" stroke-width="2"/>
</g>
<defs>
<clipPath id="clip0_43_44">
<rect width="33" height="33" fill="white" transform="translate(5.5 4.3999)"/>
</clipPath>
</defs>
</svg>
